<?xml version="1.0" encoding="UTF-8" standalone="no"?>
<svg width="32px" height="32px" viewBox="0 0 32 32" version="1.1" xmlns="http://www.w3.org/2000/svg" xmlns:xlink="http://www.w3.org/1999/xlink">
    <!-- Generator: Sketch 39.1 (31720) - http://www.bohemiancoding.com/sketch -->
    <title>close outline</title>
    <desc>Created with Sketch.</desc>
    <defs></defs>
    <g id="Page-1" stroke="none" stroke-width="1" fill="none" fill-rule="evenodd">
        <g id="Cookie-Button" transform="translate(-1384.000000, -19.000000)" fill="#FFFFFF">
            <g id="Group-5" transform="translate(0.000000, -2.000000)">
                <path d="M1402.26274,37 L1405.66206,33.6006804 C1406.28749,32.9752507 1406.28169,31.9679846 1405.65685,31.3431458 C1405.02766,30.7139506 1404.02128,30.7159756 1403.39932,31.3379387 L1400,34.7372583 L1396.60068,31.3379387 C1395.97525,30.712509 1394.96798,30.7183069 1394.34315,31.3431458 C1393.71395,31.9723409 1393.71598,32.9787173 1394.33794,33.6006804 L1397.73726,37 L1394.33794,40.3993196 C1393.71251,41.0247493 1393.71831,42.0320154 1394.34315,42.6568542 C1394.97234,43.2860494 1395.97872,43.2840244 1396.60068,42.6620613 L1400,39.2627417 L1403.39932,42.6620613 C1404.02475,43.287491 1405.03202,43.2816931 1405.65685,42.6568542 C1406.28605,42.0276591 1406.28402,41.0212827 1405.66206,40.3993196 L1402.26274,37 Z M1384,37 C1384,28.163444 1391.1615,21 1400,21 C1408.83656,21 1416,28.1615011 1416,37 C1416,45.836556 1408.8385,53 1400,53 C1391.16344,53 1384,45.8384989 1384,37 Z M1387.2,37 C1387.2,29.9307552 1392.9292,24.2 1400,24.2 C1407.06924,24.2 1412.8,29.9292009 1412.8,37 C1412.8,44.0692448 1407.0708,49.8 1400,49.8 C1392.93076,49.8 1387.2,44.0707991 1387.2,37 Z" id="close-outline"></path>
            </g>
        </g>
    </g>
</svg>